# xmcd
#
# Track frame offsets: 
#        150
#        18791
#        39379
#        59704
#        77668
#        102246
#        119741
#        144094
#        165230
#        187067
#        203028
#
# Disc length: 3033 seconds
#
# Revision: 0
# Processed by: cddbd v1.5.2PL0 Copyright (c) Steve Scherf et al.
# Submitted via: ExactAudioCopy v0.99pb5
#
DISCID=8d0bd70b
DTITLE=Drew Kennedy - Audio Guide - Cross Country Travel 
DYEAR=2009
DGENRE=Country
TTITLE0=Room 27
TTITLE1=Miles From Anywhere
TTITLE2=Headlights
TTITLE3=St. Abilene
TTITLE4=Cincinnati
TTITLE5=Buzzing Like A Wire
TTITLE6=Sharon Springs
TTITLE7=Rolling Around in the Bed
TTITLE8=Songbird
TTITLE9=Caroline
TTITLE10=Love and Rain
EXTD=
EXTT0=
EXTT1=
EXTT2=
EXTT3=
EXTT4=
EXTT5=
EXTT6=
EXTT7=
EXTT8=
EXTT9=
EXTT10=
PLAYORDER=
